<?xml version="1.0" encoding="UTF-8"?>
<svg version="1.1" xmlns="http://www.w3.org/2000/svg" width="1454" height="1460">
<path d="M0 0 C0.89944336 0.23498199 1.79888672 0.46996399 2.72558594 0.71206665 C50.3304453 13.2420935 96.55063227 30.44042441 141.74804688 49.84570312 C145.30190937 51.37045618 148.86114996 52.88197621 152.421875 54.390625 C159.39949025 57.35321766 166.36079572 60.35213496 173.3125 63.375 C174.4370459 63.86371582 175.5615918 64.35243164 176.72021484 64.85595703 C207.18797788 78.15866049 237.10226303 92.71027003 266.25195312 108.69775391 C269.1989402 110.31276676 272.15271581 111.91449543 275.109375 113.51171875 C295.93988317 124.7822084 316.46662207 136.5820653 336.96582031 148.44140625 C340.37843448 150.41309462 343.7942079 152.37920285 347.2109375 154.34375 C358.00171722 160.55031732 368.77423604 166.77434983 379.41748047 173.23095703 C381.54532652 174.51555979 383.68034773 175.78769485 385.81640625 177.05859375 C395.10381017 182.59052215 404.33020769 188.21250642 413.5 193.9375 C414.42417725 194.51387207 415.34835449 195.09024414 416.30053711 195.68408203 C431.51189295 205.21418381 446.51260934 215.08126183 461.51489258 224.93579102 C463.4220623 226.18721343 465.33059381 227.43656293 467.24047852 228.68383789 C478.68674202 236.16036691 489.86657738 243.83047035 500.71218872 252.15585327 C504.16685724 254.78768364 507.71318233 257.2929986 511.25 259.8125 C517.15918471 264.05109894 522.98811935 268.37583846 528.75 272.8125 C541.69847196 282.76250446 554.74685183 292.4306318 568.375 301.4375 C583.19054006 311.23197689 597.42782688 321.28317599 610.76464844 333.02441406 C621.62905158 342.50420558 633.14991491 351.21014508 644.9375 359.5 C645.65905273 360.00772949 646.38060547 360.51545898 647.12402344 361.03857422 C650.31963441 363.28337071 653.52086181 365.51919946 656.734375 367.73828125 C657.70890625 368.42277344 658.6834375 369.10726563 659.6875 369.8125 C660.52023437 370.38871094 661.35296875 370.96492188 662.2109375 371.55859375 C664.3125 373.375 664.3125 373.375 665.56640625 375.6953125 C668.21045152 379.75306431 671.95190157 382.04813578 675.875 384.8125 C677.6029985 386.05790581 679.32952587 387.30535497 681.0546875 388.5546875 C681.9322168 389.18858398 682.80974609 389.82248047 683.71386719 390.47558594 C689.96090412 395.04172154 696.02298787 399.84487736 702.08984375 404.64599609 C704.37624953 406.42459075 706.69851782 408.14602407 709.03125 409.86328125 C710.52114946 410.99177025 712.01074496 412.1206607 713.5 413.25 C714.20213623 413.74894775 714.90427246 414.24789551 715.62768555 414.76196289 C717.50045708 416.2093324 718.96578722 417.42713323 720.3125 419.375 C720.64174262 422.2397932 720.10908729 424.6260938 719.3125 427.375 C719.13589844 428.12265625 718.95929687 428.8703125 718.77734375 429.640625 C718.60332031 430.29546875 718.42929688 430.9503125 718.25 431.625 C717.15777985 436.87417742 717.12890977 442.03621301 717.125 447.375 C717.11919922 448.25768555 717.11339844 449.14037109 717.10742188 450.04980469 C717.12452091 454.61353641 717.50345824 458.46195562 718.75 462.875 C719.0078125 465.11328125 719.0078125 465.11328125 718.3125 467.375 C714.51275672 471.4115054 710.2185483 474.51759498 705.69091797 477.69189453 C702.32577961 480.07326015 699.04913509 482.56653946 695.76220703 485.05419922 C693.19209552 486.996527 690.61122653 488.92369842 688.02734375 490.84765625 C684.23851911 493.67443059 680.48492098 496.53996258 676.75 499.4375 C670.75116509 504.07506084 664.65173396 508.56909022 658.53979492 513.05615234 C653.3579092 516.86188207 648.19936295 520.69624814 643.0625 524.5625 C632.66622202 532.37706561 622.19756749 540.07538426 611.5625 547.5625 C599.44659987 556.04921042 599.44659987 556.04921042 587.73852539 565.08300781 C580.23420507 571.14767921 572.31106438 576.39506498 564.19750977 581.60888672 C557.69781687 585.79312025 551.31101114 590.09906742 545 594.5625 C528.24701388 606.39551324 511.09255861 617.68819768 493.74609375 628.6328125 C486.47964192 633.23227539 479.41685757 638.0649061 472.375 643 C455.46107452 654.84350062 438.08728008 665.96173096 420.60107422 676.93652344 C417.54555014 678.85706407 414.49644719 680.7876728 411.44726562 682.71826172 C408.29299856 684.71388611 405.13501754 686.70359629 401.97705078 688.69335938 C400.06784545 689.89828941 398.1601387 691.10559522 396.25341797 692.31445312 C393.02606747 694.360184 389.79457892 696.39924982 386.5625 698.4375 C385.55034424 699.08114502 384.53818848 699.72479004 383.49536133 700.38793945 C378.52802772 703.51200942 373.75144175 706.18842165 368.3125 708.375 C354.98929204 715.81070199 342.70109495 725.5020874 330.3125 734.375 C329.29671875 733.85550781 328.2809375 733.33601562 327.234375 732.80078125 C305.53295435 721.7673277 287.38926562 716.18565111 263.5 723.5625 C247.38180262 729.44070095 235.20185383 739.46379197 225.3125 753.375 C224.314441 754.70978688 223.31468839 756.04331077 222.3125 757.375 C208.48660775 755.59784355 194.78495348 753.05387825 181.0625 750.625 C178.47170835 750.16780628 175.88088781 749.7107763 173.29003906 749.25390625 C169.44299907 748.57536921 165.59601072 747.89654759 161.74920654 747.2166748 C155.12612423 746.04621393 148.5020596 744.88209699 141.875 743.734375 C53.13203027 728.34030179 -34.60973162 709.4758255 -120.48406982 682.07672119 C-122.58604944 681.40730872 -124.6894493 680.74259626 -126.79345703 680.07958984 C-130.2625225 678.98279588 -133.7261947 677.87100458 -137.1875 676.75 C-138.15486084 676.44344482 -139.12222168 676.13688965 -140.11889648 675.82104492 C-140.97684814 675.53720947 -141.8347998 675.25337402 -142.71875 674.9609375 C-143.81026367 674.60588135 -143.81026367 674.60588135 -144.92382812 674.24365234 C-146.6875 673.375 -146.6875 673.375 -148.6875 670.375 C-149.3477462 667.56390808 -149.94232428 664.76850904 -150.5 661.9375 C-155.5929544 637.82813038 -168.41745508 620.84443167 -188.6875 607.375 C-189.6775 606.715 -190.6675 606.055 -191.6875 605.375 C-192.06845093 602.8177948 -192.06845093 602.8177948 -192.07568359 599.52807617 C-192.08499405 598.29026901 -192.0943045 597.05246185 -192.10389709 595.77714539 C-192.09847369 594.4074175 -192.09246995 593.0376918 -192.0859375 591.66796875 C-192.0891937 590.24774423 -192.09343973 588.82752167 -192.09861755 587.40730286 C-192.10726879 583.58673925 -192.09416827 579.76655629 -192.07422256 575.94604492 C-192.06248358 573.55916208 -192.05540431 571.17230402 -192.04940796 568.78540039 C-191.97982061 544.88572461 -191.25740014 521.15532887 -189.19677734 497.3359375 C-188.6093843 490.53947388 -188.08221988 483.73852709 -187.55078125 476.9375 C-186.32864122 461.41099989 -185.02760349 445.891735 -183.6875 430.375 C-183.58459656 429.1812677 -183.48169312 427.9875354 -183.37567139 426.75762939 C-177.94662491 364.0175271 -169.00007146 302.12866538 -156.6875 240.375 C-156.51198608 239.49332153 -156.33647217 238.61164307 -156.15563965 237.70324707 C-153.89339383 226.35271151 -151.57055204 215.01574304 -149.17712402 203.69213867 C-148.84991783 202.14364007 -148.52350554 200.5949735 -148.19787598 199.04614258 C-137.50797378 148.21516483 -123.58728316 95.42659831 -102 48.0625 C-101.55333984 47.05767578 -101.10667969 46.05285156 -100.64648438 45.01757812 C-99.35138196 42.12474413 -98.02179563 39.24991523 -96.6875 36.375 C-96.28063965 35.44768066 -95.8737793 34.52036133 -95.45458984 33.56494141 C-93.01400713 28.24083017 -91.19986043 24.93273524 -85.6875 22.375 C-81.83142547 21.08791783 -77.92955822 20.03713829 -74 19 C-58.34196089 14.61910909 -45.36471145 7.54839219 -34.125 -4.375 C-27.0355002 -10.34910358 -8.40158995 -2.19771733 0 0 Z " fill="#D7BC77" transform="translate(518.6875,168.625)"/>
<path d="M0 0 C-16.40899139 62.1112367 -45.61358858 122.38537505 -79 177 C-79.66241699 178.08571289 -80.32483398 179.17142578 -81.00732422 180.29003906 C-87.89898824 191.54884888 -94.89515924 202.64137672 -102.73583984 213.26464844 C-104.68055178 215.93421438 -106.56390358 218.64605469 -108.45532227 221.35351562 C-115.95767113 232.08233695 -123.87085651 242.42588368 -132.0859375 252.62109375 C-133.34871922 254.19055104 -134.60411816 255.76598104 -135.8515625 257.34765625 C-140.2691926 262.93786717 -144.8492016 268.36655003 -149.5090332 273.75463867 C-152.56676316 277.29772259 -155.52897567 280.89476527 -158.4375 284.5625 C-162.39458242 289.44938868 -166.71189278 293.86265524 -171.22045898 298.23461914 C-174.0523517 300.9915824 -176.73707673 303.80468461 -179.31640625 306.80078125 C-183.4416752 311.57497532 -187.85432691 316.03819351 -192.3125 320.5 C-193.12267578 321.32242187 -193.93285156 322.14484375 -194.76757812 322.9921875 C-195.54166016 323.76820313 -196.31574219 324.54421875 -197.11328125 325.34375 C-197.81235596 326.04693359 -198.51143066 326.75011719 -199.23168945 327.47460938 C-201 329 -201 329 -203 329 C-203.26425781 329.60070313 -203.52851562 330.20140625 -203.80078125 330.8203125 C-205.06335431 333.11515214 -206.17257403 334.22925473 -208.1875 335.875 C-211.68560769 338.82613085 -215.03924441 341.89168607 -218.36425781 345.03393555 C-225.02510819 351.32835569 -231.8317749 357.28466348 -239 363 C-240.19042953 363.97979687 -241.37911783 364.96171168 -242.56640625 365.9453125 C-252.75850369 374.36548757 -263.26671708 382.28406333 -274 390 C-275.2387085 390.89235352 -275.2387085 390.89235352 -276.50244141 391.80273438 C-287.36236308 399.59744052 -298.41576458 406.87138177 -309.89013672 413.72509766 C-312.57682288 415.34854999 -315.22661008 417.02642661 -317.8762207 418.70947266 C-335.35723932 429.79628688 -353.52488064 439.68024819 -372 449 C-373.15226074 449.58152832 -374.30452148 450.16305664 -375.49169922 450.76220703 C-440.00084746 483.17753808 -509.63671623 505.8645787 -581 517 C-582.00268921 517.15695343 -582.00268921 517.15695343 -583.02563477 517.31707764 C-594.65438571 519.12651236 -606.30699774 520.66874601 -618 522 C-618.74677002 522.08570251 -619.49354004 522.17140503 -620.26293945 522.25970459 C-646.07971176 525.16782531 -671.96934458 525.28381763 -697.91687775 525.30962753 C-700.52774191 525.31246226 -703.1385913 525.31799105 -705.74945068 525.32363892 C-730.82025623 525.36296583 -755.4267642 524.42487713 -780.26953125 520.76953125 C-785.35999981 520.05342197 -790.45640077 519.55518138 -795.57397461 519.07763672 C-827.53369266 516.02127374 -858.70796143 508.84606827 -889.68560791 500.61456299 C-891.91239036 500.02326384 -894.1403866 499.43675476 -896.36865234 498.85107422 C-916.29297644 493.59305599 -935.71784693 487.26079576 -955 480 C-955.89831543 479.66226562 -956.79663086 479.32453125 -957.72216797 478.9765625 C-962.55492678 477.13513679 -967.29802868 475.1526527 -972 473 C-972.72880371 472.67354492 -973.45760742 472.34708984 -974.20849609 472.01074219 C-976.51263951 470.96051782 -978.78857381 469.86397167 -981.0625 468.75 C-981.7416748 468.43981934 -982.42084961 468.12963867 -983.12060547 467.81005859 C-993.51745192 462.48196366 -998.77756205 450.34160366 -1004 440.4375 C-1004.31171143 439.85050323 -1004.62342285 439.26350647 -1004.94458008 438.65872192 C-1010.39402031 428.38007651 -1015.51255428 417.94699288 -1020.5 407.4375 C-1020.82693848 406.7540451 -1021.15387695 406.07059021 -1021.49072266 405.36642456 C-1029.90773307 387.71180903 -1036.03274132 369.38473777 -1041.6875 350.6875 C-1041.98215149 349.7182962 -1042.27680298 348.74909241 -1042.5803833 347.7505188 C-1047.33666602 332.06467148 -1051.72714532 316.29457921 -1055.875 300.4375 C-1056.26925674 298.93888931 -1056.26925674 298.93888931 -1056.67147827 297.41000366 C-1057.41137273 294.5865276 -1058.14148012 291.76074574 -1058.8671875 288.93359375 C-1059.0852153 288.09922791 -1059.3032431 287.26486206 -1059.52787781 286.4052124 C-1060.50977577 282.52069311 -1061.27761326 279.04369637 -1061 275 C-1059.42412109 274.45472656 -1059.42412109 274.45472656 -1057.81640625 273.8984375 C-1044.18316306 269.44123986 -1044.18316306 269.44123986 -1034 259.9375 C-1030.44905662 249.50660382 -1032.29344151 240.47564347 -1035 230 C-1035.33421052 228.66688627 -1035.66772046 227.33359634 -1036 226 C-1035.24307861 225.69932617 -1034.48615723 225.39865234 -1033.70629883 225.08886719 C-1003.36815556 213.02564274 -973.30711323 200.45603406 -943.43940735 187.27168274 C-936.14391585 184.05505032 -928.82497537 180.89464938 -921.5005188 177.74468994 C-908.00684999 171.93725483 -894.68547535 165.87114131 -881.56402588 159.26446533 C-873.14666683 155.03139682 -864.65686492 150.97677804 -856.12130737 146.98831177 C-835.12419269 137.16596267 -814.28372821 127.02209687 -793.82128906 116.12280273 C-788.37024954 113.22584088 -782.88685648 110.39588616 -777.390625 107.5859375 C-776.60940781 107.18650436 -775.82819061 106.78707123 -775.02330017 106.37553406 C-773.40176218 105.54655332 -771.78021562 104.71758935 -770.15866089 103.88864136 C-758.30885379 97.82917902 -746.49602629 91.73426216 -734.84936523 85.29003906 C-727.71604278 81.35393798 -720.49312894 77.6045813 -713.25 73.875 C-695.923567 65.04837458 -695.923567 65.04837458 -679.16796875 55.19921875 C-677 54 -677 54 -674.6875 54.5 C-672 56 -672 56 -670.3984375 57.08203125 C-655.0048579 67.39900481 -636.85531234 69.56211212 -618.97363281 66.39160156 C-599.63890711 62.55527053 -583.32455771 52.30897976 -571 37 C-570.34 36.01 -569.68 35.02 -569 34 C-568.44505859 34.04487549 -567.89011719 34.08975098 -567.31835938 34.13598633 C-546.38904239 35.79406067 -525.4307959 36.87023634 -504.46484375 37.9465332 C-503.26698746 38.00875061 -502.06913116 38.07096802 -500.8349762 38.1350708 C-498.57965197 38.25208217 -496.32423494 38.36732479 -494.06871033 38.48040771 C-489.37589793 38.72441168 -484.70821489 39.01287413 -480.03369141 39.49560547 C-471.09076285 40.34293438 -462.09566898 40.47471877 -453.12109375 40.75390625 C-451.06591895 40.81960933 -449.01074833 40.8854435 -446.95558167 40.95140076 C-442.6445278 41.08891535 -438.3334026 41.22386663 -434.0222168 41.35717773 C-429.67344811 41.4919172 -425.32483505 41.63055416 -420.97631836 41.77319336 C-383.73498081 42.99385212 -346.76061748 43.37489969 -309.53108597 41.7898407 C-307.07268493 41.68527483 -304.6142161 41.58243233 -302.1557312 41.4798584 C-225.51704933 38.26866221 -149.49047179 29.75367639 -74 16 C-72.79214844 15.78134277 -71.58429687 15.56268555 -70.33984375 15.33740234 C-56.22022753 12.74727794 -42.31353034 9.45042219 -28.42163086 5.85375977 C-5.66280392 0 -5.66280392 0 0 0 Z " fill="#947120" transform="translate(1427,935)"/>
<path d="M0 0 C6.11720198 0.37358694 12.23571594 0.49058734 18.36190796 0.62585449 C22.82508362 0.734959 27.28684436 0.89357457 31.74864197 1.04812622 C35.88975071 1.18796749 40.02454678 1.26179773 44.16821289 1.29150391 C61.6145562 1.72386781 76.45024814 8.93613491 91.94165039 16.24072266 C93.39191162 16.91882696 94.84227092 17.59672153 96.29272461 18.27441406 C120.7165628 29.72501978 145.132286 41.75451302 168.03149414 56.05371094 C170.2322304 57.42129525 172.44596963 58.76652332 174.66040039 60.11181641 C192.99287158 71.29321244 211.14892241 82.82938752 227.94165039 96.24072266 C229.588063 97.50938476 231.24099905 98.76920079 232.89453125 100.02856445 C238.43929691 104.25534522 243.88650263 108.58918755 249.26196289 113.02978516 C251.06084559 114.5139945 252.8683101 115.98785854 254.68383789 117.45166016 C260.34321396 122.0208448 265.79788811 126.75021753 271.14086914 131.68603516 C273.32659049 133.67970568 275.53290771 135.63310058 277.76586914 137.57275391 C287.85030318 146.37069636 297.48801833 155.70972529 307.00415039 165.11572266 C307.60565918 165.70426025 308.20716797 166.29279785 308.8269043 166.89916992 C310.23835983 168.3074926 311.59607192 169.76932941 312.94165039 171.24072266 C312.94165039 171.90072266 312.94165039 172.56072266 312.94165039 173.24072266 C313.93165039 173.57072266 314.92165039 173.90072266 315.94165039 174.24072266 C317.30883789 175.59619141 317.30883789 175.59619141 318.81665039 177.42822266 C322.19726194 181.4247931 325.73117657 185.24217267 329.31665039 189.05322266 C334.04298463 194.100431 338.51669988 199.27401175 342.84008789 204.67431641 C344.92166466 207.21631629 347.09203419 209.63601601 349.31665039 212.05322266 C354.31160056 217.54853053 358.85155876 223.36514227 363.38793945 229.23681641 C365.05030357 231.38085862 366.72537476 233.51452921 368.40258789 235.64697266 C375.03945433 244.1005491 381.50851278 252.6291532 387.67016602 261.43505859 C389.03411867 263.37203897 390.4161163 265.29523843 391.80102539 267.21728516 C423.91914438 311.94349658 448.99094088 361.70643084 470.16571045 412.40991211 C470.87388063 414.08082163 471.61251071 415.73873774 472.35424805 417.39501953 C472.74016113 418.27738281 473.12607422 419.15974609 473.52368164 420.06884766 C473.85215088 420.79491211 474.18062012 421.52097656 474.51904297 422.26904297 C475.09019207 424.93374554 474.38973666 425.98216823 472.94165039 428.24072266 C471.30943451 430.30649588 469.65952577 432.31172692 467.94165039 434.30322266 C467.21123535 435.15823364 467.21123535 435.15823364 466.46606445 436.03051758 C462.53895196 440.6038879 458.51247252 445.07857245 454.42602539 449.51025391 C452.45896861 451.67216065 450.53018521 453.85499201 448.61352539 456.06103516 C444.97801069 460.22701428 441.23448356 464.28043478 437.44165039 468.30322266 C436.75458008 469.03202637 436.06750977 469.76083008 435.35961914 470.51171875 C417.29608372 489.58658099 417.29608372 489.58658099 407.94165039 497.52978516 C405.33472077 499.75993198 402.7898574 502.0554389 400.25415039 504.36572266 C399.75181885 504.82140625 399.2494873 505.27708984 398.73193359 505.74658203 C395.86883146 508.37323165 393.11185342 511.06910794 390.42211914 513.87353516 C389.84099365 514.47536621 389.25986816 515.07719727 388.66113281 515.69726562 C387.5314194 516.87558093 386.41264579 518.06450194 385.30615234 519.26464844 C383.75415039 520.88134766 383.75415039 520.88134766 380.94165039 523.24072266 C377.37000969 522.78863239 375.50988729 521.24877918 372.81665039 518.92822266 C363.22641131 511.39856806 354.01945831 510.05429945 342.08032227 510.96582031 C334.20755006 511.97777711 327.60959283 515.9443155 321.66040039 521.00634766 C319.59089319 522.4926301 318.51854646 523.22149209 315.94165039 523.24072266 C313.60571289 521.16259766 313.60571289 521.16259766 310.94165039 518.24072266 C308.77961474 516.2702249 306.54559493 514.38497142 304.31665039 512.49072266 C303.70055908 511.96414063 303.08446777 511.43755859 302.44970703 510.89501953 C298.80248422 507.78810855 295.11205751 504.74458918 291.37915039 501.74072266 C286.65341259 497.91016867 282.21486516 493.83436507 277.77514648 489.68212891 C273.59565216 485.79330672 269.26453879 482.15158466 264.80883789 478.58056641 C262.12256022 476.38835888 259.50992992 474.13378209 256.90161133 471.85058594 C250.75498802 466.48456686 244.4422021 461.58809379 237.75415039 456.92041016 C233.36345747 453.85481536 229.05971869 450.67427885 224.75415039 447.49072266 C223.95436768 446.90009033 223.15458496 446.30945801 222.33056641 445.70092773 C220.69173419 444.4903988 219.05314573 443.27953978 217.41479492 442.06835938 C211.75690416 437.8872172 206.0918374 433.71580876 200.42602539 429.54541016 C197.64005383 427.49439541 194.85853452 425.43767371 192.08227539 423.37353516 C184.54760229 417.78620503 176.88413275 412.42170975 169.12915039 407.14453125 C157.71551953 399.37564706 146.4705884 391.40055038 135.37915039 383.17822266 C127.76235635 377.53626644 120.0415338 372.08675022 112.19506836 366.77001953 C109.61831 365.02128558 107.04736046 363.26418878 104.47680664 361.50634766 C96.02690566 355.7304569 87.57438218 349.96242758 79.03540039 344.31884766 C76.53951386 342.64231781 74.06545233 340.94266591 71.59790039 339.22509766 C63.44533058 333.56173461 55.2664412 328.12548217 46.66894531 323.16186523 C40.73525204 319.72975622 34.88530556 316.17696804 29.06665039 312.55322266 C28.07761719 311.93737305 27.08858398 311.32152344 26.06958008 310.68701172 C19.81389098 306.75857062 13.6387864 302.72783983 7.50024414 298.61962891 C-8.36707752 288.01394813 -24.0464166 278.19359205 -41.17163086 269.70898438 C-46.13584682 267.18405247 -50.9708577 264.43629931 -55.80834961 261.67822266 C-56.75693848 261.13786377 -57.70552734 260.59750488 -58.68286133 260.04077148 C-61.47692097 258.44461261 -64.26797915 256.84332045 -67.05834961 255.24072266 C-70.51599513 253.2603533 -73.97468322 251.28180839 -77.43334961 249.30322266 C-78.281875 248.81716553 -79.13040039 248.3311084 -80.00463867 247.83032227 C-87.89356369 243.31804028 -95.82427718 238.8816696 -103.76098633 234.45410156 C-109.53643472 231.22813539 -115.28671937 227.96454882 -121.01196289 224.65039062 C-132.55844292 217.97490888 -144.34075561 211.81384949 -156.20141602 205.71777344 C-159.39321969 204.06759294 -162.5655983 202.38362196 -165.73510742 200.69116211 C-249.83704025 155.88102163 -339.68977872 123.33286538 -432.05834961 100.24072266 C-432.05834961 92.98072266 -432.05834961 85.72072266 -432.05834961 78.24072266 C-430.32584961 77.52013672 -428.59334961 76.79955078 -426.80834961 76.05712891 C-422.6134164 74.31107995 -418.42661069 72.54773392 -414.24584961 70.76806641 C-395.51097513 62.87753898 -376.41544402 56.41240301 -357.05834961 50.24072266 C-356.35947632 50.01664734 -355.66060303 49.79257202 -354.94055176 49.56170654 C-311.43117622 35.61342309 -266.83788722 26.09993714 -222.05834961 17.24072266 C-220.98458069 17.02826904 -219.91081177 16.81581543 -218.80450439 16.59692383 C-147.9873334 2.68607978 -72.06603586 -4.96513561 0 0 Z " fill="#B48C28" transform="translate(934.058349609375,47.75927734375)"/>
<path d="M0 0 C3.06690713 1.63511899 5.79889391 3.41955047 8.578125 5.5078125 C9.99351562 6.5596875 9.99351562 6.5596875 11.4375 7.6328125 C13.828125 9.5078125 13.828125 9.5078125 15.828125 11.5078125 C15.59666071 17.24990734 12.87659406 22.10369061 10.453125 27.1953125 C-30.71502783 115.89959543 -53.39540656 213.93373008 -87.98239136 462.90151978 C-88.19532366 465.83034198 -88.419576 468.7582257 -88.64282227 471.6862793 C-90.10861616 491.37542574 -90.91813493 511.06928136 -91.64160156 530.79718018 C-91.88864821 537.51603623 -92.1426402 544.23462929 -92.39832878 550.95316124 C-92.48499106 553.25254607 -92.56894053 555.55201668 -92.65248108 557.85151672 C-93.00736619 567.41513404 -93.52995587 576.95920882 -94.171875 586.5078125 C-95.17038986 586.82305878 -96.16890472 587.13830505 -97.19767761 587.46310425 C-113.42018915 592.61958496 -122.89697867 601.9240413 -131.171875 616.5078125 C-136.12816957 615.93470061 -140.21371203 614.33074733 -144.66796875 612.19140625 C-145.73386986 611.68928368 -145.73386986 611.68928368 -146.82130432 611.17701721 C-148.32484865 610.4668488 -149.82668822 609.75306121 -151.3269043 609.03588867 C-153.56753893 607.96530199 -155.81341812 606.90648493 -158.06054688 605.84960938 C-166.42174312 601.89675361 -174.64150439 597.7460821 -182.76953125 593.33349609 C-186.39390618 591.38867149 -190.05309705 589.52924786 -193.734375 587.6953125 C-194.46462891 587.33034668 -195.19488281 586.96538086 -195.94726562 586.58935547 C-199.71488693 584.72072052 -203.48781718 582.86358854 -207.265625 581.015625 C-219.83937631 574.83569222 -232.05347948 568.17103791 -244.20361328 561.19921875 C-248.222919 558.9088955 -252.26828708 556.66674827 -256.31323242 554.42211914 C-268.66764125 547.55942114 -280.850225 540.43969724 -292.98046875 533.19140625 C-296.64206543 531.00422584 -300.3126771 528.84001576 -304.01953125 526.73046875 C-313.81963801 521.14210615 -322.8839829 514.83723915 -331.953125 508.13378906 C-335.49065238 505.54136693 -339.08088554 503.02537894 -342.671875 500.5078125 C-349.36011359 495.80574038 -355.99982832 491.03979051 -362.62158203 486.24462891 C-367.98420144 482.3617584 -373.36307279 478.50261535 -378.75854492 474.66552734 C-380.2320667 473.61633467 -381.70212715 472.56228534 -383.171875 471.5078125 C-384.35136719 470.90839844 -384.35136719 470.90839844 -385.5546875 470.296875 C-387.78924531 467.82482796 -387.61551179 465.73092502 -387.46484375 462.50195312 C-386.78454839 455.5493345 -385.75129801 448.6574162 -384.671875 441.7578125 C-384.53971588 440.90522858 -384.40755676 440.05264465 -384.27139282 439.17422485 C-375.5683251 383.4548073 -360.4955041 327.78614237 -338.3996582 275.85864258 C-336.66178073 271.7713824 -335.15829567 267.65149923 -333.734375 263.4453125 C-331.21402812 256.27451911 -327.92487773 249.62131773 -324.4140625 242.90234375 C-323.0001964 240.1768723 -321.6174589 237.43652776 -320.234375 234.6953125 C-319.19345029 232.65326745 -318.15178618 230.61159914 -317.109375 228.5703125 C-316.62718506 227.61133057 -316.14499512 226.65234863 -315.64819336 225.66430664 C-310.82267645 216.31004009 -304.73714856 208.71716072 -297.234375 201.3828125 C-296.62174805 200.77735596 -296.00912109 200.17189941 -295.37792969 199.5480957 C-291.71796749 195.95359388 -288.00201671 192.4567942 -284.0859375 189.140625 C-281.77429118 187.16864916 -279.54041758 185.11936842 -277.296875 183.0703125 C-273.31328211 179.47359357 -269.2039788 176.11142863 -264.98828125 172.79296875 C-261.55779313 170.00956299 -258.24348496 167.10696218 -254.921875 164.1953125 C-248.9885124 159.00856656 -242.91341747 154.06662425 -236.68359375 149.2421875 C-233.69643272 146.92836536 -230.75552445 144.56220778 -227.82104492 142.18212891 C-219.26145673 135.25299265 -210.44364833 128.70499645 -201.53759766 122.22949219 C-199.30066681 120.6015421 -197.06972166 118.9657155 -194.83984375 117.328125 C-169.21896379 98.5843516 -142.684313 80.76763913 -115.36328125 64.59765625 C-109.23747947 60.96812767 -103.1727159 57.24048142 -97.109375 53.5078125 C-95.99925049 52.82485107 -94.88912598 52.14188965 -93.74536133 51.43823242 C-88.02264894 47.90931796 -82.32469079 44.34651855 -76.65917969 40.7265625 C-59.86175977 29.99903827 -42.41126364 20.41560921 -24.86621094 10.97460938 C-22.15251677 9.49727388 -19.46220002 7.98310033 -16.7734375 6.4609375 C-15.07311477 5.5178719 -13.37260251 4.57514792 -11.671875 3.6328125 C-10.90085449 3.18534668 -10.12983398 2.73788086 -9.33544922 2.27685547 C-4.02349326 -0.62433516 -4.02349326 -0.62433516 0 0 Z " fill="#C6A03E" transform="translate(391.171875,180.4921875)"/>
<path d="M0 0 C3.99782333 2.22829497 7.25744737 4.8529667 10.6875 7.875 C35.13572487 28.93824929 63.73020726 45.71880398 91.1875 62.5 C92.10708496 63.06332031 93.02666992 63.62664063 93.97412109 64.20703125 C99.30140404 67.44376361 104.6999948 70.48962546 110.18481445 73.45019531 C115.20051718 76.21141992 120.09621141 79.17094297 125 82.125 C126.62977783 83.10134399 126.62977783 83.10134399 128.29248047 84.09741211 C134.1854157 87.64277988 140.00600645 91.27170139 145.76586914 95.02880859 C152.8765993 99.65155586 159.67440564 103.39182272 167.67578125 106.32421875 C173.50442284 108.50305757 179.11094463 111.19036152 184.75 113.8125 C185.875271 114.33553711 187.00054199 114.85857422 188.15991211 115.39746094 C191.44195046 116.92738735 194.72141653 118.46268598 198 120 C198.91491211 120.42780762 199.82982422 120.85561523 200.77246094 121.29638672 C209.57697898 125.41690116 218.32482826 129.62344437 226.98339844 134.04296875 C230.58532053 135.86120302 234.21560198 137.54972645 237.92578125 139.13671875 C239.1621936 139.66736938 239.1621936 139.66736938 240.42358398 140.20874023 C242.02348281 140.88831085 243.62833788 141.55636207 245.23852539 142.21118164 C245.96160889 142.51789795 246.68469238 142.82461426 247.4296875 143.140625 C248.07147949 143.40391602 248.71327148 143.66720703 249.37451172 143.93847656 C252.54303335 146.00767633 252.99837852 148.99271136 253.7890625 152.546875 C253.92151367 153.21895996 254.05396484 153.89104492 254.19042969 154.58349609 C258.07732796 173.96121253 269.04427508 193.25943902 285.61328125 204.5234375 C291.66405025 208.50584394 291.66405025 208.50584394 298 212 C298.47070312 214.14770508 298.47070312 214.14770508 298.78125 217.01953125 C298.90113281 218.10814453 299.02101563 219.19675781 299.14453125 220.31835938 C299.32048828 222.04795898 299.32048828 222.04795898 299.5 223.8125 C299.67595703 225.38547852 299.67595703 225.38547852 299.85546875 226.99023438 C300.48306471 232.87141587 300.99539961 238.74557031 301.36987305 244.64770508 C302.72794006 265.89000609 305.08307825 286.99076336 307.48150635 308.13677979 C307.91828825 311.99758388 308.35028327 315.85891604 308.78201771 319.72028732 C311.03809617 339.89822104 313.34360287 360.07036531 315.6875 380.23828125 C315.83973746 381.54876781 315.83973746 381.54876781 315.99505043 382.88572884 C317.66812079 397.27451425 319.39707617 411.65619025 321.15234375 426.03515625 C322.12664476 434.02054029 323.07280168 442.00901444 324 450 C322.88882812 450.35191406 321.77765625 450.70382812 320.6328125 451.06640625 C305.33707561 456.03143511 305.33707561 456.03143511 294 467 C290.64369051 480.12011891 295.10264764 494.14602084 298 507 C266.39824401 516.43592063 234.55609435 525.09529987 202.66424561 533.4911499 C200.43737868 534.07837124 198.21133491 534.6687235 195.98614502 535.26226807 C192.8851171 536.08807608 189.78105885 536.90127849 186.67578125 537.7109375 C185.75194138 537.95918274 184.8281015 538.20742798 183.87626648 538.4631958 C183.02547012 538.68207458 182.17467377 538.90095337 181.2980957 539.12646484 C180.56049515 539.3204184 179.82289459 539.51437195 179.0629425 539.71420288 C176.68529478 540.04359881 175.2402282 539.8524534 173 539 C171.01173556 536.98219226 169.22645044 534.99483373 167.4375 532.8125 C166.9101123 532.18174561 166.38272461 531.55099121 165.83935547 530.90112305 C164.21292467 528.94458955 162.60348965 526.97536384 161 525 C160.5364209 524.43023438 160.0728418 523.86046875 159.59521484 523.2734375 C141.27778568 500.62984876 124.60220781 476.57525297 109 452 C108.4652002 451.15856445 107.93040039 450.31712891 107.37939453 449.45019531 C94.1610542 428.57244419 82.14390105 407.05143738 71 385 C70.45762695 383.93136719 69.91525391 382.86273437 69.35644531 381.76171875 C32.68538519 309.05441202 11.65020315 230.54552484 1.25 150.0625 C1.10120392 148.92624176 0.95240784 147.78998352 0.79910278 146.61929321 C-2.64952131 120.1134285 -4.38766247 93.7920091 -4.3125 67.0625 C-4.31200653 65.84216064 -4.31151306 64.62182129 -4.31100464 63.36450195 C-4.23825789 4.23825789 -4.23825789 4.23825789 0 0 Z " fill="#A9811E" transform="translate(4,671)"/>
<path d="M0 0 C3.64597433 1.28942995 6.19812592 2.80295587 9.125 5.3125 C17.84765062 12.20411487 25.85152941 15.26916612 37 14 C47.15825314 12.55871988 59.31390424 7.94443109 67.15625 1.125 C67.7646875 0.75375 68.373125 0.3825 69 0 C72.97083437 1.15738857 75.29517137 2.94444865 78.14453125 5.88671875 C78.90443359 6.66080078 79.66433594 7.43488281 80.44726562 8.23242188 C81.61805664 9.44768555 81.61805664 9.44768555 82.8125 10.6875 C84.35815009 12.27720047 85.90630574 13.86446888 87.45703125 15.44921875 C88.13741455 16.15393311 88.81779785 16.85864746 89.51879883 17.5847168 C91.541805 19.55397785 93.59443364 21.39852621 95.73095703 23.23974609 C100.30036161 27.20636925 104.57606647 31.4319946 108.84765625 35.71484375 C109.66318466 36.52941544 110.47871307 37.34398712 111.31895447 38.1832428 C113.03198008 39.89559193 114.74375965 41.60918842 116.4543457 43.32397461 C119.05503552 45.93002015 121.66101956 48.53068522 124.26757812 51.13085938 C125.94042486 52.80436699 127.61296134 54.47818482 129.28515625 56.15234375 C130.44012352 57.30427467 130.44012352 57.30427467 131.61842346 58.47947693 C135.7468529 62.62562532 139.71330254 66.85331222 143.51878357 71.29859924 C145.56662157 73.65085044 147.76629008 75.82507192 150 78 C153.52754647 81.4904144 156.87384474 85.04644314 160.09765625 88.81640625 C162.00714698 91.00820362 163.97065822 93.14384864 165.94799805 95.27441406 C170.78266686 100.48543434 175.36990596 105.82212602 179.828125 111.36328125 C181.93756349 113.92420028 184.12887648 116.37123455 186.375 118.8125 C190.62851278 123.47110924 194.51616582 128.36629032 198.37060547 133.35473633 C200.16738071 135.67918784 201.91996937 137.91996937 204 140 C205.01312153 148.39499539 203.45058657 157.18058291 202.375 165.5 C202.28697113 166.18673798 202.19894226 166.87347595 202.10824585 167.58102417 C198.9869032 191.77756727 194.72389161 215.66174078 189.25 239.4375 C189.05354889 240.2940921 188.85709778 241.1506842 188.6546936 242.03323364 C188.09475917 244.46012409 187.52612915 246.88475924 186.953125 249.30859375 C186.78562241 250.02985443 186.61811981 250.75111511 186.44554138 251.49423218 C184.86434603 258.0683348 184.86434603 258.0683348 183 261 C181.25349426 261.80682373 181.25349426 261.80682373 179.11254883 262.24511719 C178.30149689 262.41950821 177.49044495 262.59389923 176.65481567 262.77357483 C175.76454681 262.94626389 174.87427795 263.11895294 173.95703125 263.296875 C173.0230954 263.49143784 172.08915955 263.68600067 171.12692261 263.88645935 C168.02558182 264.5262271 164.91965726 265.13915198 161.8125 265.75 C159.62922182 266.1900582 157.44603623 266.63057597 155.26293945 267.0715332 C81.50764462 281.83552089 6.80621885 290.93384157 -68.30475998 294.85695267 C-69.99248507 294.94652709 -71.68007743 295.0386812 -73.36745071 295.134655 C-89.97933219 296.07913626 -106.58032074 296.16430116 -123.21303487 296.16725707 C-125.50183739 296.16797794 -127.79063426 296.17013114 -130.07943535 296.17275429 C-138.11131026 296.18193908 -146.14316883 296.18609729 -154.17504883 296.18530273 C-161.58914232 296.18470159 -169.00316317 296.1952786 -176.4172383 296.2110464 C-182.85023202 296.22422641 -189.28320227 296.2294824 -195.71620935 296.22884732 C-199.52892703 296.22859569 -203.34157966 296.23125837 -207.15428352 296.24202538 C-222.86100956 296.28337716 -238.37218974 296.02332829 -253.99542427 294.21729469 C-258.26612229 293.75435383 -262.5488629 293.58623887 -266.83984375 293.4375 C-267.72737839 293.40149689 -268.61491302 293.36549377 -269.52934265 293.32839966 C-271.3858676 293.25320137 -273.24248298 293.18020278 -275.09918213 293.10943604 C-280.0212229 292.91965862 -284.94220301 292.70527084 -289.86328125 292.4921875 C-290.83166931 292.45044403 -291.80005737 292.40870056 -292.79779053 292.36569214 C-311.72323554 291.54109761 -330.54972965 290.17238004 -349.375 288.0625 C-350.09471985 287.9830011 -350.8144397 287.9035022 -351.55596924 287.82159424 C-361.80583899 286.67636563 -371.88764654 285.02467234 -382 283 C-383.86176512 277.53819624 -385.46269625 272.74698077 -384 267 C-381.51490733 264.15319573 -378.32988524 262.7088725 -375 261 C-373.33706836 260.06738262 -371.67442657 259.13422209 -370.01586914 258.19384766 C-368.72355276 257.46334267 -367.42831798 256.73798286 -366.13061523 256.01708984 C-355.65664598 250.18939658 -345.40490548 243.96984441 -335.10498047 237.84179688 C-331.78591137 235.87300797 -328.45651297 233.9227791 -325.12304688 231.97851562 C-316.38078265 226.87672507 -307.77658348 221.56352545 -299.18359375 216.21484375 C-295.23596846 213.75969337 -291.26895942 211.33944487 -287.2902832 208.93505859 C-278.53160506 203.63580649 -269.94627078 198.09579621 -261.3894043 192.47705078 C-255.94933221 188.90846522 -250.48050656 185.40603925 -244.9375 182 C-228.37286319 171.77488881 -212.35334972 160.50421179 -196.76953125 148.83984375 C-181.68640102 137.57063451 -166.25684778 126.66889639 -149.9375 117.25 C-142.63395009 113.01971605 -136.25864855 107.81221393 -129.76708984 102.44482422 C-126.6058704 99.86011896 -123.35356084 97.39806119 -120.10913086 94.91894531 C-117.02431614 92.55863329 -113.95060613 90.18543322 -110.890625 87.79296875 C-102.94929291 81.58496557 -94.96191725 75.45498552 -86.875 69.4375 C-79.97767656 64.30000932 -73.22884434 59.02349089 -66.58544922 53.56225586 C-62.61200683 50.29774492 -58.59379491 47.11206799 -54.5 44 C-47.46965428 38.63772389 -40.63341292 33.04702336 -33.78613281 27.45410156 C-31.43195724 25.53755294 -29.06162212 23.6417608 -26.6875 21.75 C-21.41914806 17.54765239 -16.20991166 13.27443029 -11 9 C-8.93801828 7.31186566 -6.87523632 5.62471252 -4.8125 3.9375 C-3.89082031 3.18339844 -2.96914062 2.42929687 -2.01953125 1.65234375 C-1.01986328 0.83443359 -1.01986328 0.83443359 0 0 Z " fill="#9D781F" transform="translate(1248,658)"/>
<path d="M0 0 C2.94541016 0.98180339 5.89081211 1.96363135 8.83618164 2.94555664 C11.49144701 3.83067316 14.14690776 4.7152006 16.80249023 5.59936523 C24.20096831 8.0632628 31.59677192 10.53480183 38.98828125 13.01953125 C57.580774 19.26545857 76.18508465 25.45126981 95 31 C95.79361938 31.23422668 96.58723877 31.46845337 97.40490723 31.70977783 C170.18668922 53.12410155 243.96494948 69.27714974 318.64147949 82.40899658 C321.74732166 82.95553585 324.85274603 83.50437353 327.95800781 84.05419922 C332.12156733 84.79078999 336.2860046 85.52209064 340.45166016 86.24673462 C341.86917809 86.49345073 343.28650586 86.74126272 344.70361328 86.99032593 C352.45612008 88.34870471 360.14687496 89.44122383 368 90 C369.5625 95.37109375 369.5625 95.37109375 370 98 C370.19392334 98.64735107 370.38784668 99.29470215 370.58764648 99.96166992 C371.10895398 102.81250213 371.07336773 104.28111097 370 107 C365.46127787 110.89862511 360.3046069 113.59722024 355.0625 116.4375 C353.56764969 117.27960376 352.07464653 118.12499476 350.58349609 118.97363281 C347.67519327 120.62340193 344.75854113 122.25619619 341.83154297 123.87255859 C337.54264733 126.24438381 333.32767683 128.72927278 329.125 131.25 C326.42098493 132.84074008 323.71041534 134.42019496 321 136 C319.6392334 136.79422363 319.6392334 136.79422363 318.25097656 137.60449219 C304.4301955 145.65954864 290.51854277 153.51674922 276.49633789 161.21362305 C269.19054599 165.22592912 261.91752422 169.28977397 254.6875 173.4375 C253.83744385 173.92428223 252.9873877 174.41106445 252.11157227 174.91259766 C248.38885529 177.04687241 244.67198997 179.19036339 240.96484375 181.3515625 C231.40630624 186.88017712 221.55364931 191.65540092 211.56640625 196.359375 C206.81537259 198.59952899 202.11812967 200.92953904 197.4375 203.3125 C192.75238916 205.69131241 188.04702726 207.8651264 183.1875 209.875 C177.69530541 212.17319616 172.48950171 214.80169857 167.25 217.625 C148.35334931 227.77622172 128.5350619 236.24772853 108.87109375 244.796875 C107.51818226 245.38530883 106.16531728 245.97384962 104.8125 246.5625 C104.14814941 246.85141113 103.48379883 247.14032227 102.79931641 247.43798828 C98.57990598 249.28222702 94.4093925 251.21047532 90.25 253.1875 C72.14705519 261.72150074 53.57225947 269.24567145 35 276.6875 C34.22821411 276.99744904 33.45642822 277.30739807 32.66125488 277.6267395 C30.46295639 278.50833106 28.26308849 279.38586121 26.0625 280.26171875 C25.40642761 280.52469757 24.75035522 280.78767639 24.07440186 281.05862427 C17.35109373 283.7204462 17.35109373 283.7204462 15 284 C12.77264334 282.47345323 10.8370288 280.95167066 8.8125 279.1875 C4.13732824 275.23429924 -0.4400788 272.12389556 -5.90698242 269.36303711 C-15.00575191 264.67289954 -15.00575191 264.67289954 -17.63671875 260.24609375 C-18.33795889 257.2815918 -18.69367403 254.45161261 -18.85058594 251.41162109 C-19.02749645 248.55619287 -19.35692376 245.73535229 -19.6953125 242.89453125 C-20.69318721 234.38723685 -21.52293238 225.86479162 -22.35888672 217.34033203 C-22.71446758 213.72647935 -23.07435836 210.11310061 -23.4375 206.5 C-23.55794678 205.29706299 -23.67839355 204.09412598 -23.80249023 202.85473633 C-24.66011596 194.5699053 -25.80429651 186.35729544 -27.0625 178.125 C-28.65706273 167.52130496 -29.56124846 157.01028045 -30.14086914 146.30712891 C-30.81488419 134.32439204 -31.98010026 122.40185139 -33.15884399 110.45950317 C-35.24181898 89.33703002 -36.85590538 68.27307393 -37.7253418 47.06646729 C-38.02098197 40.03527138 -38.49598524 33.01910906 -39 26 C-38.02772461 25.82098145 -37.05544922 25.64196289 -36.05371094 25.45751953 C-28.2806747 23.99523231 -21.861071 21.89307961 -15 18 C-13.67034213 17.32603252 -12.33814209 16.65696116 -11 16 C-11 15.34 -11 14.68 -11 14 C-10.34 14 -9.68 14 -9 14 C-8.74476563 13.44828125 -8.48953125 12.8965625 -8.2265625 12.328125 C-6.80697926 9.63362942 -5.13867746 7.23221272 -3.375 4.75 C-2.74335938 3.85796875 -2.11171875 2.9659375 -1.4609375 2.046875 C-0.73777344 1.03367187 -0.73777344 1.03367187 0 0 Z " fill="#B88D20" transform="translate(366,863)"/>
<path d="M0 0 C0.68117889 -0.00190338 1.36235779 -0.00380676 2.06417847 -0.00576782 C12.75185947 -0.00231281 12.75185947 -0.00231281 15.91650391 1.36523438 C19.86893906 2.83875806 23.68674814 2.76675666 27.875 2.8671875 C29.76279477 2.93004215 31.65057079 2.9934616 33.53833008 3.05737305 C34.52991119 3.08809906 35.52149231 3.11882507 36.54312134 3.15048218 C108.59851409 5.4772434 178.27565396 21.03914162 246.625 43.375 C246.625 44.035 246.625 44.695 246.625 45.375 C245.63334587 45.31862366 245.63334587 45.31862366 244.62165833 45.2611084 C186.34379283 41.97999659 128.10515227 40.72041752 69.79888916 44.24865723 C66.54809322 44.43758801 63.29554818 44.58749005 60.04296875 44.7421875 C40.99638097 45.74655013 22.30051187 48.78030584 3.50946045 51.89849854 C0.50339676 52.39508837 -2.5037572 52.88458152 -5.51123047 53.37255859 C-67.72798352 63.38408115 -67.72798352 63.38408115 -128.64663696 79.21104431 C-132.095653 80.28779081 -135.54822821 81.35181815 -139.00292969 82.41015625 C-156.38162042 87.74796743 -173.65110065 93.37203348 -190.8885498 99.14764404 C-193.59086197 100.05209579 -196.29433223 100.95305877 -198.99781036 101.85401821 C-201.63191793 102.7321446 -204.26550246 103.61183039 -206.89891052 104.49205208 C-208.73388506 105.1052653 -210.56914825 105.71761452 -212.40441895 106.3299408 C-213.51168335 106.70115555 -214.61894775 107.0723703 -215.75976562 107.45483398 C-216.72708618 107.77854477 -217.69440674 108.10225555 -218.69104004 108.43577576 C-220.49176021 109.0659193 -222.27555601 109.74649225 -224.03918457 110.47401428 C-234.17941759 114.38537004 -246.44525801 110.26365222 -256.375 107.375 C-254.76215632 102.48903238 -251.97510957 98.69336687 -249 94.5625 C-248.46979248 93.81911377 -247.93958496 93.07572754 -247.39331055 92.30981445 C-242.28862831 85.18554854 -237.03547892 78.1756818 -231.74169922 71.19140625 C-230.4707857 69.50230362 -229.21776528 67.80192474 -227.97265625 66.09375 C-223.53159789 60.03705178 -218.83654118 54.40743069 -213.72265625 48.90625 C-211.66087985 46.68323652 -209.66362714 44.42385037 -207.6875 42.125 C-206.58596771 40.8726779 -205.48189756 39.62258239 -204.375 38.375 C-203.84777344 37.76914062 -203.32054687 37.16328125 -202.77734375 36.5390625 C-192.92624679 25.87286295 -179.84893176 23.35969159 -166.25 20.375 C-164.31655926 19.94026512 -162.38321076 19.50511981 -160.44995117 19.06958008 C-108.03642471 7.36337602 -53.76771392 0.01624566 0 0 Z " fill="#BC9122" transform="translate(727.375,-0.375)"/>
<path d="M0 0 C2.53334629 2.53334629 3.0943364 4.71683409 4.25 8.11328125 C4.46407501 8.74143738 4.67815002 9.36959351 4.89871216 10.01678467 C5.60801229 12.1124977 6.30548125 14.21184418 7 16.3125 C7.36348541 17.4075032 7.36348541 17.4075032 7.73431396 18.52462769 C21.25237308 59.43011744 32.66603223 102.56689575 37.0625 145.5 C37.14649048 146.3132373 37.23048096 147.12647461 37.3170166 147.96435547 C41.7268995 191.20831356 41.86224661 234.70392581 40.625 278.125 C40.5943042 279.31432129 40.5636084 280.50364258 40.53198242 281.72900391 C40.49306885 282.79038574 40.45415527 283.85176758 40.4140625 284.9453125 C40.3826416 285.83750488 40.3512207 286.72969727 40.31884766 287.64892578 C39.98088598 290.14094032 39.25221999 291.83513446 38 294 C37.64921387 293.51869629 37.29842773 293.03739258 36.93701172 292.54150391 C25.55940961 276.95488929 14.02496357 261.52881185 1.44921875 246.8828125 C-0.78269514 244.2557751 -2.93380226 241.58579672 -5.0625 238.875 C-8.71964232 234.25860724 -12.63846662 229.92276799 -16.625 225.58984375 C-18.63588251 223.39705575 -20.61083946 221.18281317 -22.5625 218.9375 C-25.89000649 215.11125717 -29.27666394 211.34081513 -32.67578125 207.578125 C-34.22059883 205.86454583 -35.75971357 204.14580757 -37.29296875 202.421875 C-41.56258466 197.6304988 -45.91537848 193.01811949 -50.56640625 188.59375 C-52 187 -52 187 -52 185 C-52.59748047 184.74138184 -53.19496094 184.48276367 -53.81054688 184.21630859 C-56.18716046 182.89602661 -57.34023787 181.64955473 -59.03125 179.5390625 C-61.98298559 176.04018361 -65.13498813 172.96769442 -68.53125 169.8984375 C-70.01761271 168.52381141 -71.50031356 167.14532425 -72.98242188 165.76611328 C-73.99665577 164.83639887 -75.02292432 163.91965007 -76.06054688 163.01611328 C-84.69523939 155.45667409 -84.69523939 155.45667409 -85.4362793 149.4831543 C-85.17332604 145.92024533 -84.64851257 142.51107533 -84 139 C-83.90310083 137.40951713 -83.84079009 135.81606407 -83.83203125 134.22265625 C-83.82127563 133.18709595 -83.82127563 133.18709595 -83.81030273 132.13061523 C-83.81139038 131.10689819 -83.81139038 131.10689819 -83.8125 130.0625 C-83.81258057 129.31234619 -83.81266113 128.56219238 -83.81274414 127.78930664 C-83.87475194 121.60614998 -84.51927601 115.64201517 -85.46484375 109.52734375 C-85.64144531 108.36332031 -85.81804687 107.19929687 -86 106 C-86.21011719 105.3181665 -86.42023438 104.63633301 -86.63671875 103.93383789 C-87.27521918 101.34762612 -87.47017933 99.63593455 -87 97 C-84.20727983 92.98725974 -80.73324456 89.83808675 -77.125 86.5625 C-75.25132141 84.79432706 -73.37886054 83.02486256 -71.5078125 81.25390625 C-70.66879395 80.48377197 -69.82977539 79.7136377 -68.96533203 78.92016602 C-66.93822917 77.14915284 -66.93822917 77.14915284 -66 75 C-65.34 75 -64.68 75 -64 75 C-63.77699219 74.44828125 -63.55398438 73.8965625 -63.32421875 73.328125 C-61.58445903 70.2694324 -59.34235518 68.1926188 -56.8125 65.75 C-53.01452333 62.03492177 -49.38114758 58.25765867 -45.93359375 54.21484375 C-43.90121876 51.88685058 -41.80643876 49.62879362 -39.69702148 47.37084961 C-34.70222351 42.02232778 -29.923049 36.58145256 -25.33984375 30.87109375 C-22.64491395 27.56429341 -19.85782373 24.34680395 -17.0625 21.125 C-12.10479498 15.39584976 -7.42879017 9.49401734 -2.86328125 3.44921875 C-1 1 -1 1 0 0 Z " fill="#8F6E20" transform="translate(1413,488)"/>
<path d="M0 0 C2.33470021 1.47544008 4.45492257 2.94157609 6.625 4.625 C7.737601 5.47737451 8.85499291 6.32352402 9.9765625 7.1640625 C10.58274414 7.62603027 11.18892578 8.08799805 11.81347656 8.56396484 C14.05443498 10.11816363 14.05443498 10.11816363 16.95996094 11.33056641 C21.87183978 13.63756984 25.18171739 15.39974564 27.70556641 20.33544922 C28.88720548 23.76114746 29.72133662 27.25648484 30.49108887 30.79489136 C31.19561979 34.02066791 32.01157263 37.21533681 32.82122803 40.4160614 C33.24483084 42.09325726 33.66327628 43.77176359 34.07672119 45.45149231 C36.25206184 54.23880146 38.93077353 62.83824496 41.75 71.4375 C41.9981546 72.19768433 42.2463092 72.95786865 42.50198364 73.74108887 C54.20420687 109.44278684 68.39661575 144.32196903 84.34375 178.328125 C85.22966702 180.21851559 86.11508319 182.10914099 87 184 C87.47953125 185.02416016 87.9590625 186.04832031 88.453125 187.10351562 C88.91203125 188.09544922 89.3709375 189.08738281 89.84375 190.109375 C90.25818359 191.00108398 90.67261719 191.89279297 91.09960938 192.81152344 C92 195 92 195 92 197 C85.87750274 195.27447446 80.42475387 192.30406119 74.8125 189.375 C73.72114746 188.80595947 72.62979492 188.23691895 71.50537109 187.65063477 C26.29483639 163.79077025 -15.86009915 134.32594098 -55.06738281 101.61230469 C-56.86196918 100.11515356 -58.6611819 98.62374047 -60.4609375 97.1328125 C-66.81807177 91.83804879 -72.95979003 86.35180028 -78.98120117 80.67749023 C-81.83680173 77.98848418 -84.72527564 75.36155513 -87.70019531 72.8046875 C-92.02801195 69.02545424 -96.11864599 65.04285388 -100.18359375 60.984375 C-100.92456802 60.24672913 -101.6655423 59.50908325 -102.42897034 58.74908447 C-103.9789332 57.20414589 -105.52757932 55.65788523 -107.07495117 54.11035156 C-109.45016394 51.73734784 -111.83329215 49.37248399 -114.21679688 47.0078125 C-115.7270507 45.50048899 -117.23683352 43.99269338 -118.74609375 42.484375 C-119.45954453 41.77810974 -120.1729953 41.07184448 -120.9080658 40.34417725 C-121.5628743 39.68629211 -122.2176828 39.02840698 -122.89233398 38.35058594 C-123.46999008 37.77435486 -124.04764618 37.19812378 -124.64280701 36.60443115 C-126 35 -126 35 -127 32 C-126.0706665 31.78907715 -125.14133301 31.5781543 -124.18383789 31.36083984 C-114.941416 29.26168938 -105.70214955 27.14906567 -96.46533203 25.02539062 C-93.79512494 24.41155639 -91.12429576 23.80087221 -88.45263672 23.19335938 C-63.28112377 17.46017713 -38.15937999 10.74325831 -13.99243164 1.60424805 C-4.74643058 -1.79613128 -4.74643058 -1.79613128 0 0 Z " fill="#906F20" transform="translate(318,1191)"/>
<path d="M0 0 C1.04599869 -0.0141394 1.04599869 -0.0141394 2.11312866 -0.02856445 C4.45081585 -0.04971279 6.78725691 -0.04279121 9.125 -0.03125 C9.9309259 -0.03181396 10.73685181 -0.03237793 11.56719971 -0.03295898 C35.51758374 0.00204681 59.34714253 2.84220232 83.125 5.46875 C83.125 10.05613554 81.71480436 12.84727127 79.625 16.78125 C79.31046875 17.41998047 78.9959375 18.05871094 78.671875 18.71679688 C74.07037316 27.45080132 66.73649636 32.10215064 58 36.15625 C56.21972791 37.01617255 54.44113851 37.87958561 52.6640625 38.74609375 C51.75043945 39.19065918 50.83681641 39.63522461 49.89550781 40.09326172 C34.13467705 47.91812253 18.97029506 56.95321721 3.82128906 65.88476562 C1.45760974 67.27335232 -0.91283853 68.64866337 -3.2890625 70.015625 C-29.64068115 85.2218879 -55.12321403 102.26535882 -79.83300781 120.00341797 C-81.94503076 121.51900402 -84.06226662 123.02712321 -86.1796875 124.53515625 C-97.06885105 132.31794257 -107.73049168 140.38238792 -118.34716797 148.53173828 C-120.75939452 150.38016453 -123.17721807 152.2209387 -125.59765625 154.05859375 C-133.48389919 160.05055408 -141.25431668 166.14022526 -148.875 172.46875 C-150.19335188 173.5502824 -151.51241906 174.6309432 -152.83203125 175.7109375 C-161.94973914 183.17981934 -170.96711948 190.75089761 -179.875 198.46875 C-181.01001953 199.45101562 -181.01001953 199.45101562 -182.16796875 200.453125 C-186.63010003 204.33633705 -191.02076365 208.29708461 -195.4140625 212.2578125 C-205.07592815 220.93815529 -205.07592815 220.93815529 -209.875 224.46875 C-210.535 224.13875 -211.195 223.80875 -211.875 223.46875 C-203.07792748 208.93852443 -194.17890389 194.54579262 -184.40429688 180.64501953 C-182.88041019 178.47644898 -181.36898317 176.29962127 -179.859375 174.12109375 C-163.49167268 150.59736675 -145.51263168 128.05029014 -126.12890625 106.9375 C-124.2402754 104.86884368 -122.39149911 102.77734971 -120.5625 100.65625 C-117.11947564 96.70835909 -113.60073276 92.83122829 -110.0625 88.96875 C-109.48653076 88.33219482 -108.91056152 87.69563965 -108.31713867 87.03979492 C-106.8774246 85.47731619 -105.38050598 83.96793917 -103.875 82.46875 C-103.215 82.46875 -102.555 82.46875 -101.875 82.46875 C-101.4728125 81.5715625 -101.4728125 81.5715625 -101.0625 80.65625 C-99.87582594 78.47027146 -98.77900887 77.05542406 -96.875 75.46875 C-96.215 75.46875 -95.555 75.46875 -94.875 75.46875 C-94.49214844 74.57929688 -94.49214844 74.57929688 -94.1015625 73.671875 C-92.74876259 71.2420051 -91.39158724 69.97638734 -89.25 68.21875 C-86.32147906 65.74483701 -83.5592771 63.20607606 -80.875 60.46875 C-77.70047296 57.2509901 -74.41303285 54.24437704 -70.984375 51.30078125 C-68.69870454 49.31563413 -66.47798622 47.2683517 -64.25 45.21875 C-59.80641222 41.20868298 -55.18891416 37.49654888 -50.46142578 33.83251953 C-46.62313635 30.85515483 -42.8471191 27.81566796 -39.10107422 24.72314453 C-30.57700877 17.69452916 -21.74850429 11.17184683 -12.72753906 4.79638672 C-10.82604802 3.48728672 -10.82604802 3.48728672 -9.06933594 1.83056641 C-5.98883566 -0.08120824 -3.61274849 0.0469432 0 0 Z " fill="#C19729" transform="translate(312.875,135.53125)"/>
<path d="M0 0 C-5.77847899 8.26489182 -11.74998071 16.36329169 -17.875 24.375 C-18.9122522 25.73286621 -18.9122522 25.73286621 -19.97045898 27.11816406 C-22.52766778 30.46375303 -25.08547225 33.80886752 -27.64990234 37.14892578 C-29.12618159 39.07440418 -30.59628365 41.00435014 -32.0625 42.9375 C-32.53123535 43.55310791 -32.9999707 44.16871582 -33.48291016 44.80297852 C-36.40650831 48.7006147 -39.13402289 52.69022267 -41.79296875 56.7734375 C-42.44966553 57.7725415 -43.1063623 58.77164551 -43.78295898 59.80102539 C-45.06555923 61.76464386 -46.33037556 63.74002914 -47.57446289 65.72827148 C-51.42585129 71.61624415 -54.15467103 74.37306451 -61 76 C-62.26808285 76.42664621 -63.53129787 76.86805074 -64.7890625 77.32421875 C-65.41377441 77.54408447 -66.03848633 77.7639502 -66.68212891 77.99047852 C-76.18727103 81.40052887 -86.3992158 85.4591677 -93.67919922 92.64428711 C-96.39512873 94.91527024 -97.0275003 95.00177557 -100.84179688 95.24804688 C-102.3039141 95.09980054 -103.76318174 94.92144385 -105.21875 94.71875 C-106.01793854 94.63095779 -106.81712708 94.54316559 -107.64053345 94.45271301 C-110.26384788 94.15984837 -112.88107156 93.82960031 -115.5 93.5 C-118.25383367 93.18467624 -121.00867766 92.87950672 -123.76370239 92.57478333 C-125.65604262 92.36487002 -127.54803188 92.15176996 -129.43966675 91.93559265 C-139.31657063 90.81565453 -149.21301291 90.04455222 -159.125 89.3125 C-161.50168335 89.1359396 -163.87829796 88.95864198 -166.25473022 88.7787323 C-168.29217017 88.62484784 -170.32991242 88.47498028 -172.36767578 88.32543945 C-175.94455012 88.00496805 -179.45129409 87.54109038 -183 87 C-179.77076783 83.45670285 -176.12072844 80.98434159 -172.0625 78.5 C-171.3701123 78.07203125 -170.67772461 77.6440625 -169.96435547 77.203125 C-160.77634084 71.57260932 -151.39008717 66.28371878 -142 61 C-141.23429687 60.566875 -140.46859375 60.13375 -139.6796875 59.6875 C-102.18425684 38.48866994 -63.44290225 20.50665123 -23.01751709 5.65267944 C-21.39082322 5.05456421 -19.76519408 4.45354462 -18.14068604 3.84951782 C-15.86991779 3.00800265 -13.59424637 2.18152418 -11.31640625 1.359375 C-10.29485695 0.97754311 -10.29485695 0.97754311 -9.25267029 0.58799744 C-5.84474722 -0.62233016 -3.43249805 -1.44057364 0 0 Z " fill="#C19627" transform="translate(510,35)"/>
</svg>
